<svg width="126" height="30" viewBox="0 0 126 30" fill="none" xmlns="http://www.w3.org/2000/svg">
<g clip-path="url(#clip0_301_1022)">
<path fill-rule="evenodd" clip-rule="evenodd" d="M9.58008 17.8484L4.06314 5.44477C4.03073 5.3729 3.96873 5.33203 3.88981 5.33203H0.19213C0.12308 5.33203 0.0695311 5.36162 0.0328925 5.41799C-0.00374618 5.47577 -0.0093829 5.53636 0.0188007 5.59837L8.02716 23.4837C8.05957 23.5555 8.12158 23.5964 8.20049 23.5964H11.3486C11.4261 23.5964 11.4895 23.5569 11.5205 23.4851L19.6289 5.60118C19.6571 5.53918 19.6529 5.47718 19.6162 5.42081C19.5796 5.36303 19.5261 5.33344 19.457 5.33344H15.7551C15.6776 5.33344 15.6142 5.37431 15.5818 5.44477L9.98169 17.8498C9.94505 17.9315 9.86896 17.9794 9.78018 17.9794C9.6914 17.9794 9.61531 17.9301 9.57867 17.8484H9.58008Z" fill="black"/>
<path fill-rule="evenodd" clip-rule="evenodd" d="M71.3866 5.108C66.6701 5.6914 63.126 9.7132 63.126 14.4635C63.126 19.2139 66.6687 23.2357 71.3866 23.8191C71.7741 23.867 72.1644 23.8909 72.5548 23.8909C72.9451 23.8909 73.3355 23.867 73.723 23.8191C78.4395 23.2357 81.9836 19.2139 81.9836 14.4635C81.9836 9.7132 78.4409 5.68999 73.723 5.108C73.3355 5.06009 72.9451 5.03613 72.5548 5.03613C72.1644 5.03613 71.7741 5.06009 71.3866 5.108ZM73.5666 8.86628C76.2722 9.34963 78.2408 11.7185 78.2408 14.4635C78.2408 17.2086 76.2313 19.6183 73.4919 20.0735C73.1819 20.1242 72.8676 20.151 72.5534 20.151C72.2391 20.151 71.9249 20.1256 71.6149 20.0735L71.536 20.0608C68.8332 19.576 66.8659 17.2072 66.8659 14.4649C66.8659 11.7227 68.8754 9.31017 71.6149 8.85501C71.9249 8.80428 72.2391 8.7775 72.5534 8.7775C72.8676 8.7775 73.1819 8.80287 73.4919 8.85501L73.5666 8.86769V8.86628Z" fill="black"/>
<path fill-rule="evenodd" clip-rule="evenodd" d="M93.0593 5.10827C88.3428 5.69167 84.7987 9.71347 84.7987 14.4638C84.7987 19.2141 88.3414 23.2359 93.0593 23.8193C93.4469 23.8673 93.8372 23.8912 94.2275 23.8912C94.6179 23.8912 95.0082 23.8673 95.3958 23.8193C100.112 23.2359 103.656 19.2141 103.656 14.4638V0.190239C103.656 0.0859599 103.57 0 103.466 0H100.105C100.001 0 99.915 0.0859599 99.915 0.190239V14.4652C99.915 17.2399 97.9055 19.62 95.1661 20.0752C94.856 20.1259 94.5418 20.1527 94.2275 20.1527C93.9133 20.1527 93.599 20.1273 93.289 20.0752L93.2101 20.0625C90.5073 19.5777 88.5401 17.2089 88.5401 14.4666C88.5401 11.7244 90.5496 9.31185 93.289 8.85669C93.599 8.80596 93.9133 8.77918 94.2275 8.77918C94.5418 8.77918 94.856 8.80455 95.1661 8.85669L95.2407 8.86937C96.1215 9.0272 96.9515 9.39217 97.6631 9.9333C97.7237 9.9798 97.7942 9.98544 97.8618 9.95162C97.9295 9.9178 97.9675 9.8572 97.9675 9.78252V5.93546C97.9675 5.85514 97.9252 5.79172 97.8505 5.76072C97.0656 5.43379 96.2384 5.21678 95.3958 5.1125C95.0082 5.06459 94.6179 5.04063 94.2275 5.04063C93.8372 5.04063 93.4469 5.06459 93.0593 5.1125V5.10827Z" fill="black"/>
<path fill-rule="evenodd" clip-rule="evenodd" d="M28.0379 5.108C23.3214 5.6914 19.7773 9.7132 19.7773 14.4635C19.7773 19.2139 23.32 23.2357 28.0379 23.8191C28.4255 23.867 28.8158 23.8909 29.2062 23.8909C29.5965 23.8909 29.9868 23.867 30.3744 23.8191C31.2171 23.7148 32.0442 23.4978 32.8292 23.1708C32.9024 23.1398 32.9461 23.0764 32.9461 22.9961V19.1491C32.9461 19.073 32.9081 19.0124 32.8404 18.9785C32.7728 18.9447 32.7023 18.9518 32.6417 18.9969C31.909 19.5535 31.0536 19.9227 30.1461 20.0721C29.8361 20.1228 29.5218 20.1496 29.2076 20.1496C28.8933 20.1496 28.5791 20.1242 28.2691 20.0721L28.1901 20.0594C25.4873 19.5746 23.5201 17.2058 23.5201 14.4635C23.5201 11.7213 25.5296 9.30876 28.2691 8.8536C28.5791 8.80287 28.8933 8.77609 29.2076 8.77609C29.5218 8.77609 29.8361 8.80146 30.1461 8.8536L30.2208 8.86628C32.9264 9.34963 34.895 11.7185 34.895 14.4635V23.4062C34.895 23.5105 34.981 23.5964 35.0852 23.5964H38.4461C38.5504 23.5964 38.6364 23.5105 38.6364 23.4062V14.4635C38.6364 9.7132 35.0937 5.68999 30.3758 5.108C29.9882 5.06009 29.5979 5.03613 29.2076 5.03613C28.8172 5.03613 28.4269 5.06009 28.0394 5.108H28.0379Z" fill="black"/>
<path fill-rule="evenodd" clip-rule="evenodd" d="M49.7128 5.10835C44.9962 5.69175 41.4521 9.71355 41.4521 14.4639C41.4521 19.2142 44.9948 23.236 49.7128 23.8194C50.1003 23.8673 50.4906 23.8913 50.881 23.8913C51.2713 23.8913 51.6616 23.8673 52.0492 23.8194C56.7657 23.236 60.3098 19.2142 60.3098 14.4639C60.3098 9.71355 56.7671 5.69034 52.0492 5.10835C51.6616 5.06044 51.2713 5.03648 50.881 5.03648C50.4906 5.03648 50.1003 5.06044 49.7128 5.10835ZM58.8809 2.18994C57.5929 2.18994 56.5487 3.23414 56.5487 4.52213C56.5487 5.81012 57.5929 6.85432 58.8809 6.85432C60.1689 6.85432 61.2131 5.81012 61.2131 4.52213C61.2131 3.23414 60.1689 2.18994 58.8809 2.18994ZM44.3396 24.152C44.1789 24.0364 44.0225 23.9167 43.8689 23.7926C43.7886 23.7278 43.6674 23.7405 43.6026 23.8208L41.4944 26.4391C41.4296 26.5194 41.4423 26.6406 41.5226 26.7054C43.6857 28.4486 46.28 29.5449 49.0363 29.8859C49.6479 29.962 50.2637 30.0001 50.8796 30.0001C51.4954 30.0001 52.1112 29.962 52.7228 29.8859C55.4791 29.5449 58.0734 28.4486 60.2365 26.7054C60.3168 26.6406 60.3309 26.5194 60.2647 26.4391L58.1566 23.8208C58.0917 23.7405 57.9705 23.7264 57.8902 23.7926C57.7366 23.9167 57.5788 24.0364 57.4195 24.152C55.8962 25.2511 54.1277 25.9431 52.2634 26.1742C51.804 26.2305 51.3418 26.2601 50.8796 26.2601C50.4173 26.2601 49.9551 26.2319 49.4957 26.1742C47.6314 25.9445 45.8629 25.2511 44.3396 24.152ZM51.8928 8.86663C54.5984 9.34998 56.567 11.7188 56.567 14.4639C56.567 17.209 54.5575 19.6187 51.8181 20.0738C51.508 20.1246 51.1938 20.1513 50.8796 20.1513C50.5653 20.1513 50.2511 20.126 49.941 20.0738L49.8621 20.0611C47.1593 19.5764 45.1921 17.2076 45.1921 14.4653C45.1921 11.723 47.2016 9.31052 49.941 8.85536C50.2511 8.80463 50.5653 8.77785 50.8796 8.77785C51.1938 8.77785 51.508 8.80322 51.8181 8.85536L51.8928 8.86804V8.86663Z" fill="black"/>
<path fill-rule="evenodd" clip-rule="evenodd" d="M114.732 5.10824C110.016 5.69164 106.472 9.71344 106.472 14.4638C106.472 19.2141 110.015 23.2359 114.732 23.8193C115.12 23.8672 115.51 23.8912 115.901 23.8912C116.291 23.8912 116.681 23.8672 117.069 23.8193C117.912 23.715 118.739 23.498 119.524 23.1711C119.597 23.1401 119.641 23.0767 119.641 22.9964V19.1493C119.641 19.0732 119.604 19.0126 119.535 18.9788C119.467 18.945 119.397 18.952 119.336 18.9971C118.604 19.5537 117.748 19.9229 116.841 20.0723C116.531 20.123 116.216 20.1498 115.902 20.1498C115.588 20.1498 115.274 20.1245 114.964 20.0723L114.885 20.0596C112.182 19.5749 110.215 17.206 110.215 14.4638C110.215 11.7215 112.224 9.30901 114.964 8.85384C115.274 8.80311 115.588 8.77634 115.902 8.77634C116.216 8.77634 116.531 8.8017 116.841 8.85384L116.915 8.86652C119.621 9.34987 121.59 11.7187 121.59 14.4638V23.4064C121.59 23.5107 121.676 23.5967 121.78 23.5967H125.141C125.245 23.5967 125.331 23.5107 125.331 23.4064V14.4638C125.331 9.71344 121.788 5.69024 117.07 5.10824C116.683 5.06033 116.292 5.03638 115.902 5.03638C115.512 5.03638 115.121 5.06033 114.734 5.10824H114.732Z" fill="black"/>
</g>
<defs>
<clipPath id="clip0_301_1022">
<rect width="125.328" height="30" fill="white"/>
</clipPath>
</defs>
</svg>
