<svg width="155" height="30" viewBox="0 0 155 30" fill="none" xmlns="http://www.w3.org/2000/svg">
<path d="M12.1294 19.3897V19.3795L5.84631 13.0964V27.6949H12.1294V20.2632C14.1328 21.4935 16.0695 23.3292 16.0695 23.3292L11.9281 19.1878L12.1294 19.3892V19.3897Z" fill="black"/>
<path d="M31.163 27.6955V2.30469H30.2392L18.5231 14.0208L6.80745 2.30469H5.80948V8.89696C2.8727 7.11727 0 4.393 0 4.393L5.80948 10.2025V10.2137L12.0926 16.4968L18.4868 22.9278L24.8804 16.4968V27.6955H31.1635H31.163Z" fill="black"/>
<path d="M11.2671 26.8332H6.70868V15.179L11.2671 19.7374V26.8337V26.8332ZM6.95537 26.587H11.0209V19.8394L6.95537 15.7738V26.587Z" fill="black"/>
<path d="M30.3006 26.8332H25.7422V14.4064L18.4862 21.7046L12.704 15.8887L6.67181 9.85653V3.38867L18.5231 15.2399L30.3006 3.46236V26.8322V26.8332ZM25.9889 26.5871H30.0544V4.05772L18.5236 15.5886L6.91797 3.98404V9.75507L12.878 15.7151L18.4857 21.3554L25.9883 13.8094V26.5871H25.9889Z" fill="black"/>
<path d="M53.7783 6.08984C53.7847 6.09625 53.7911 6.10319 53.7975 6.11013C53.8034 6.11601 53.8092 6.12135 53.8151 6.12669L53.7783 6.08984Z" fill="black"/>
<path d="M37.163 5.9953L41.0641 9.89694L41.3968 9.67535C42.3948 9.04688 43.5775 8.71422 44.7971 8.71422C46.4972 8.71422 48.0862 9.37954 49.3063 10.5991C50.5259 11.8187 51.1912 13.4077 51.1912 15.1079C51.1912 16.1806 50.9338 17.2239 50.4442 18.1386C48.239 16.9495 45.8767 14.7095 45.8767 14.7095L50.0181 18.8509H50.0192L54.4804 23.3122L54.8499 22.8684C56.5869 20.6141 57.5112 17.916 57.5112 15.0699C57.5112 11.6793 56.1875 8.50918 53.7975 6.10903C51.3973 3.71743 48.2261 2.39321 44.8344 2.39321C42.1497 2.39321 39.5968 3.21657 37.4236 4.76826C34.3373 3.0094 31.1635 0 31.1635 0L37.1572 5.9937L37.163 5.9953Z" fill="black"/>
<path d="M53.0371 24.7549L53.0387 24.7538L48.5668 20.2819L48.1973 20.4667C47.1993 21.0951 46.0166 21.4278 44.797 21.4278C43.0969 21.4278 41.5078 20.7625 40.2883 19.5429C39.0687 18.3234 38.4034 16.7343 38.4034 15.0342C38.4034 13.9438 38.6709 12.8839 39.1766 11.958C41.33 13.1674 43.5695 15.2905 43.5695 15.2905L39.584 11.305L39.5867 11.3013L35.1147 6.82935L34.7452 7.27307C33.0083 9.52744 32.084 12.2255 32.084 15.071C32.084 18.4713 33.4146 21.6499 35.8169 24.0522C38.2192 26.4545 41.3978 27.7851 44.7976 27.7851C47.5042 27.7851 50.0763 26.9479 52.2613 25.3716C55.2701 27.1454 58.2827 30.0005 58.2827 30.0005L53.0382 24.756L53.0371 24.7549Z" fill="black"/>
<path d="M53.7286 6.21476L53.7104 6.19714V6.1966L53.6907 6.17685L53.8642 6.00171L53.9021 6.03962L53.7286 6.21476Z" fill="black"/>
<path d="M54.4078 22.0204L51.1095 18.7222L51.2046 18.5454C51.7599 17.5074 52.053 16.3188 52.053 15.1078C52.053 13.1855 51.2937 11.3674 49.9156 9.98925C48.5374 8.61056 46.7193 7.8518 44.7965 7.8518C43.5455 7.8518 42.3238 8.1631 41.2644 8.75153L41.1832 8.79691L37.8849 5.49864L38.0051 5.41428C40.016 4.00302 42.3777 3.25708 44.8339 3.25708C47.9789 3.25708 50.9461 4.48732 53.1888 6.72141C55.4202 8.96244 56.6488 11.9275 56.6488 15.0715C56.6488 17.5293 55.9029 19.891 54.4922 21.9014L54.4078 22.0215V22.0204ZM51.4134 18.6773L54.3742 21.6381C55.7016 19.6961 56.4021 17.4284 56.4021 15.0704C56.4021 11.9921 55.1991 9.08899 53.0142 6.89441C50.8185 4.70678 47.9132 3.50217 44.8339 3.50217C42.4775 3.50217 40.2098 4.20326 38.2673 5.53121L41.2265 8.49095C42.3035 7.91107 43.5358 7.60511 44.7965 7.60511C46.785 7.60511 48.6645 8.39004 50.0897 9.81464C51.5148 11.2392 52.2992 13.1193 52.2992 15.1073C52.2992 16.3583 51.9959 17.5875 51.4214 18.6613L51.4128 18.6773H51.4134Z" fill="black"/>
<path d="M44.797 26.9223C41.6435 26.9223 38.6704 25.6862 36.4262 23.442C34.1819 21.1977 32.9458 18.2252 32.9458 15.0711C32.9458 12.6133 33.6917 10.2515 35.1025 8.24172L35.1868 8.12158L38.4867 11.422L38.42 11.5448C37.8449 12.5978 37.5411 13.8045 37.5411 15.0342C37.5411 16.957 38.3003 18.7746 39.6785 20.1533C41.0566 21.532 42.8743 22.2907 44.797 22.2907C46.0481 22.2907 47.2698 21.9794 48.3292 21.391L48.4103 21.3456L51.7455 24.6802L51.6253 24.7646C49.6128 26.1764 47.2517 26.9223 44.797 26.9223ZM35.2205 8.50336C33.893 10.4454 33.1925 12.7131 33.1925 15.0705C33.1925 18.159 34.403 21.0701 36.6002 23.2674C38.798 25.4651 41.7092 26.6756 44.797 26.6756C47.1523 26.6756 49.4195 25.9745 51.3631 24.646L48.3671 21.65C47.2901 22.2299 46.0577 22.5358 44.797 22.5358C42.8086 22.5358 40.929 21.7509 39.5044 20.3263C38.0793 18.9017 37.2949 17.0216 37.2949 15.0332C37.2949 13.7773 37.6019 12.5444 38.1823 11.4647L35.2205 8.50229V8.50336Z" fill="black"/>
<path d="M58.2828 8.58779H67.8183V11.0413C66.3472 10.0898 64.9926 8.80565 64.9926 8.80565L67.8183 11.6314V11.6554L74.1014 17.9385V8.58779H83.6737V2.30469H58.2828V8.58779Z" fill="black"/>
<path d="M74.1009 20.8214L67.8177 14.5383V27.6956H74.1009V22.1932C77.0889 23.9697 80.0588 26.7852 80.0588 26.7852L74.1009 20.8273V20.822V20.8214Z" fill="black"/>
<path d="M73.2385 26.8332H68.6801V16.6201L73.2385 21.1785V26.8332ZM68.9268 26.587H72.9924V21.2805L68.9268 17.2149V26.5865V26.587Z" fill="black"/>
<path d="M73.2385 15.8565L68.6801 11.2981V7.72541H59.1447V3.16699H82.8103V7.72541H73.238V15.8565H73.2385ZM68.9268 11.1961L72.9924 15.2617V7.47925H82.5647V3.41368H59.3919V7.47925H68.9273V11.1967L68.9268 11.1961Z" fill="black"/>
<path d="M89.1824 6.64164L95.4656 12.9247V3.49982H89.1824V5.42795C86.353 3.65093 83.6736 1.11035 83.6736 1.11035L89.1824 6.61922V6.64111V6.64164Z" fill="black"/>
<path d="M95.1799 15.5219L89.1819 9.52393V28.8901H95.465V16.4392C96.9826 17.3966 98.4141 18.754 98.4141 18.754L95.1826 15.5224H95.1799V15.5219Z" fill="black"/>
<path d="M94.6027 10.8422L90.0443 6.28378V4.36206H94.6027V10.8422ZM90.2909 6.1818L94.3565 10.2474V4.60875H90.2909V6.18233V6.1818Z" fill="black"/>
<path d="M94.6027 28.0284H90.0443V11.6064L94.6027 16.1643V28.0284ZM90.2909 27.7822H94.3565V16.2668L90.2909 12.2018V27.7822Z" fill="black"/>
<path d="M121.028 6.08984C121.035 6.09625 121.041 6.10319 121.048 6.11013C121.053 6.11601 121.059 6.12135 121.065 6.12669L121.028 6.08984Z" fill="black"/>
<path d="M104.413 5.9953L108.314 9.89694L108.647 9.67535C109.645 9.04688 110.828 8.71422 112.047 8.71422C113.747 8.71422 115.336 9.37954 116.556 10.5991C117.776 11.8187 118.441 13.4077 118.441 15.1079C118.441 16.1806 118.184 17.2239 117.694 18.1386C115.489 16.9495 113.127 14.7095 113.127 14.7095L117.268 18.8509H117.269L121.73 23.3122L122.1 22.8684C123.837 20.6141 124.761 17.916 124.761 15.0699C124.761 11.6793 123.438 8.50918 121.048 6.10903C118.647 3.71743 115.476 2.39321 112.084 2.39321C109.4 2.39321 106.847 3.21657 104.674 4.76826C101.587 3.0094 98.4141 0 98.4141 0L104.408 5.9937L104.414 5.9953H104.413Z" fill="black"/>
<path d="M120.288 24.7549L120.289 24.7538L115.817 20.2819L115.448 20.4667C114.45 21.0951 113.267 21.4278 112.048 21.4278C110.348 21.4278 108.758 20.7625 107.539 19.5429C106.319 18.3234 105.654 16.7343 105.654 15.0342C105.654 13.9438 105.922 12.8839 106.427 11.958C108.581 13.1674 110.82 15.2905 110.82 15.2905L106.835 11.305L106.837 11.3013L102.365 6.82935L101.996 7.27307C100.259 9.52744 99.3346 12.2255 99.3346 15.071C99.3346 18.4713 100.665 21.6499 103.068 24.0522C105.47 26.4545 108.648 27.7851 112.048 27.7851C114.755 27.7851 117.327 26.9479 119.512 25.3716C122.521 27.1454 125.533 30.0005 125.533 30.0005L120.289 24.756L120.288 24.7549Z" fill="black"/>
<path d="M120.979 6.21467L120.941 6.17676L121.115 6.00269L121.153 6.03953L120.979 6.21467Z" fill="black"/>
<path d="M121.658 22.0204L118.36 18.7222L118.455 18.5454C119.011 17.5074 119.304 16.3188 119.304 15.1078C119.304 13.1855 118.544 11.3674 117.166 9.98925C115.788 8.61056 113.97 7.8518 112.047 7.8518C110.796 7.8518 109.574 8.1631 108.515 8.75153L108.434 8.79691L105.136 5.49864L105.256 5.41428C107.267 4.00302 109.628 3.25708 112.085 3.25708C115.23 3.25708 118.197 4.48732 120.439 6.72141C122.671 8.96244 123.899 11.9275 123.899 15.0715C123.899 17.5293 123.154 19.891 121.743 21.9014L121.658 22.0215V22.0204ZM118.664 18.6773L121.625 21.6381C122.952 19.6961 123.653 17.4284 123.653 15.0704C123.653 11.9921 122.45 9.08899 120.265 6.89441C118.069 4.70678 115.164 3.50217 112.085 3.50217C109.728 3.50217 107.46 4.20326 105.518 5.53121L108.477 8.49095C109.554 7.91107 110.786 7.60511 112.047 7.60511C114.036 7.60511 115.915 8.39004 117.34 9.81464C118.765 11.2392 119.55 13.1193 119.55 15.1073C119.55 16.3583 119.247 17.5875 118.672 18.6613L118.663 18.6773H118.664Z" fill="black"/>
<path d="M112.047 26.9223C108.894 26.9223 105.92 25.6862 103.676 23.442C101.432 21.1977 100.196 18.2252 100.196 15.0711C100.196 12.6133 100.942 10.2515 102.353 8.24172L102.437 8.12158L105.737 11.422L105.67 11.5448C105.095 12.5978 104.791 13.8045 104.791 15.0342C104.791 16.957 105.55 18.7746 106.929 20.1533C108.307 21.532 110.124 22.2907 112.047 22.2907C113.298 22.2907 114.52 21.9794 115.579 21.391L115.66 21.3456L118.996 24.6802L118.875 24.7646C116.863 26.1764 114.502 26.9223 112.047 26.9223ZM102.471 8.50336C101.143 10.4454 100.443 12.7131 100.443 15.0705C100.443 18.159 101.653 21.0701 103.85 23.2674C106.048 25.4651 108.959 26.6756 112.047 26.6756C114.402 26.6756 116.67 25.9745 118.613 24.646L115.617 21.65C114.54 22.2299 113.308 22.5358 112.047 22.5358C110.059 22.5358 108.179 21.7509 106.754 20.3263C105.329 18.9017 104.545 17.0216 104.545 15.0332C104.545 13.7773 104.852 12.5444 105.432 11.4647L102.471 8.50229V8.50336Z" fill="black"/>
<path d="M148.571 8.21816V18.7884L132.605 2.8225L132.457 2.67459H131.459V9.22521C128.482 7.44766 125.533 4.65291 125.533 4.65291L131.527 10.6466L131.459 10.5783V10.5841L137.742 16.8672L141.77 20.896L148.681 27.807L148.94 28.0654H154.854V1.93506L148.719 8.07026L148.571 8.21816H148.571Z" fill="black"/>
<path d="M137.742 19.7123L131.459 13.4292V28.0277H137.742V20.5714C139.718 21.8006 141.604 23.5889 141.604 23.5889L137.462 19.4475L137.742 19.7278V19.7123Z" fill="black"/>
<path d="M153.992 27.2026H149.298L132.322 10.2264V3.75854L149.433 20.8704V8.5754L153.992 4.01752V27.2026ZM149.4 26.9564H153.745V4.61181L149.68 8.67685V21.4647L132.568 4.35284V10.1239L149.4 26.9559V26.9564Z" fill="black"/>
<path d="M136.88 27.1652H132.322V15.511L136.88 20.0694V27.1652ZM132.568 26.919H136.634V20.1714L132.568 16.1058V26.919Z" fill="black"/>
</svg>
