<svg width="151" height="30" viewBox="0 0 151 30" fill="none" xmlns="http://www.w3.org/2000/svg">
<g clip-path="url(#clip0_301_984)">
<path d="M136.532 0V17.2588L142.095 17.2664L150.372 29.5526H144.639L136.532 17.6092V29.5526H132.042V0H136.532Z" fill="black"/>
<path d="M127.763 0V29.5517H123.204V0H127.763Z" fill="black"/>
<path d="M35.5051 19.7153C35.5051 18.2591 35.7152 16.9007 36.1363 15.6384C36.5565 14.3769 37.1876 13.2822 38.0289 12.355C38.8701 11.4279 39.9189 10.6998 41.1761 10.1707C42.4333 9.64161 43.8938 9.37622 45.5584 9.37622C47.2231 9.37622 48.6699 9.64076 49.9271 10.1707C51.1843 10.6989 52.234 11.4279 53.0744 12.355C53.9156 13.2822 54.551 14.3769 54.9806 15.6384C55.4101 16.8998 55.6253 18.2591 55.6253 19.7153C55.6253 21.1716 55.4101 22.513 54.9806 23.7651C54.551 25.018 53.9156 26.1059 53.0744 27.028C52.2331 27.9509 51.1843 28.6765 49.9271 29.2055C48.6699 29.7346 47.2137 29.9991 45.5584 29.9991C43.9032 29.9991 42.4333 29.7346 41.1761 29.2055C39.9189 28.6765 38.8693 27.9509 38.0289 27.028C37.1876 26.1051 36.5565 25.0172 36.1363 23.7651C35.7152 22.5121 35.5051 21.1631 35.5051 19.7153ZM40.1724 19.7153C40.1724 20.7556 40.3127 21.6717 40.5926 22.4628C40.8724 23.2538 41.2552 23.9148 41.7392 24.443C42.2232 24.9721 42.7931 25.3727 43.4489 25.644C44.1047 25.9154 44.8073 26.0515 45.5584 26.0515C46.3095 26.0515 46.967 25.9154 47.6143 25.644C48.2608 25.3719 48.8265 24.9721 49.3105 24.443C49.7944 23.9148 50.1789 23.2538 50.4639 22.4628C50.7488 21.6717 50.8917 20.7556 50.8917 19.7153C50.8917 18.675 50.7497 17.7998 50.4639 17.0087C50.1789 16.2176 49.7944 15.5482 49.3105 15.0013C48.8265 14.4543 48.2608 14.0384 47.6143 13.7534C46.9679 13.4676 46.2823 13.3256 45.5584 13.3256C44.8346 13.3256 44.1047 13.4676 43.4489 13.7534C42.7931 14.0384 42.2232 14.4543 41.7392 15.0013C41.2552 15.5482 40.8733 16.2176 40.5926 17.0087C40.3119 17.7998 40.1724 18.7031 40.1724 19.7153Z" fill="black"/>
<path d="M100.041 19.7151C100.041 18.2588 100.251 16.9004 100.672 15.6381C101.092 14.3767 101.724 13.282 102.565 12.3548C103.406 11.4276 104.455 10.6995 105.712 10.1704C106.969 9.64137 108.43 9.37598 110.094 9.37598C111.759 9.37598 113.206 9.64051 114.463 10.1704C115.72 10.6987 116.77 11.4276 117.61 12.3548C118.452 13.282 119.087 14.3767 119.516 15.6381C119.946 16.8996 120.161 18.2588 120.161 19.7151C120.161 21.1713 119.946 22.5127 119.516 23.7648C119.087 25.0178 118.452 26.1057 117.61 27.0277C116.769 27.9506 115.72 28.6762 114.463 29.2053C113.206 29.7344 111.75 29.9989 110.094 29.9989C108.439 29.9989 106.969 29.7344 105.712 29.2053C104.455 28.6762 103.405 27.9506 102.565 27.0277C101.724 26.1048 101.092 25.0169 100.672 23.7648C100.251 22.5119 100.041 21.1628 100.041 19.7151ZM104.708 19.7151C104.708 20.7554 104.849 21.6715 105.128 22.4625C105.408 23.2536 105.791 23.9145 106.275 24.4427C106.759 24.9718 107.329 25.3725 107.985 25.6438C108.641 25.9151 109.343 26.0512 110.094 26.0512C110.845 26.0512 111.503 25.9151 112.15 25.6438C112.797 25.3716 113.362 24.9718 113.846 24.4427C114.33 23.9145 114.715 23.2536 115 22.4625C115.285 21.6715 115.428 20.7554 115.428 19.7151C115.428 18.6748 115.286 17.7995 115 17.0085C114.715 16.2174 114.33 15.548 113.846 15.001C113.362 14.4541 112.798 14.0381 112.15 13.7532C111.504 13.4674 110.818 13.3253 110.094 13.3253C109.37 13.3253 108.641 13.4674 107.985 13.7532C107.329 14.0381 106.759 14.4541 106.275 15.001C105.791 15.548 105.409 16.2174 105.128 17.0085C104.848 17.7995 104.708 18.7029 104.708 19.7151Z" fill="black"/>
<path d="M79.7238 9.82544L86.9957 29.5518H91.731L84.7841 9.82544H79.7238Z" fill="black"/>
<path d="M94.8701 9.82544C93.2956 9.82544 92.0197 11.1022 92.0197 12.6767C92.0197 14.6177 94.8701 18.192 94.8701 18.192C94.8701 18.192 97.7213 14.656 97.7213 12.6767C97.7213 11.1022 96.4446 9.82544 94.8701 9.82544Z" fill="black"/>
<path d="M8.31934 2.25146L17.7619 29.3722H22.9855L13.5965 2.25146H8.31934Z" fill="black"/>
<path d="M25.4901 2.25146H20.2129L29.6555 29.3722H34.8791L25.4901 2.25146Z" fill="black"/>
<path d="M0 25.8788C0 27.9075 1.64507 29.5525 3.67376 29.5525C5.70246 29.5525 7.34668 27.9075 7.34668 25.8788C7.34668 23.3771 3.67376 18.772 3.67376 18.772C3.67376 18.772 0 23.3287 0 25.8788Z" fill="black"/>
<path d="M148.293 10.6598C147.179 9.54635 145.374 9.54635 144.261 10.6598C142.888 12.0327 142.377 16.5757 142.377 16.5757C142.377 16.5757 146.894 16.0909 148.293 14.6917C149.406 13.5782 149.406 11.7732 148.293 10.6598Z" fill="black"/>
<path d="M73.8271 19.5117C73.2028 19.0686 72.4772 18.7045 71.6496 18.4196C70.8219 18.1346 69.9424 17.8794 69.0101 17.6532L67.6262 17.3274C67.0384 17.1913 66.4796 17.0552 65.9505 16.92C65.4214 16.7839 64.9553 16.6299 64.5529 16.4589C64.1506 16.2871 63.8291 16.0881 63.5901 15.8618C63.3502 15.6364 63.2303 15.365 63.2303 15.0478C63.2303 14.7135 63.334 14.4328 63.5424 14.2065C63.7508 13.9803 64.0171 13.7974 64.3428 13.657C64.6686 13.5167 65.0327 13.4172 65.435 13.3585C65.6307 13.3304 65.8238 13.3091 66.016 13.2947V9.3938C65.5218 9.41166 65.0276 9.44994 64.5325 9.52649C63.8903 9.62601 63.2753 9.77742 62.6876 9.98072C62.0998 10.184 61.552 10.4443 61.0459 10.7607C60.5389 11.078 60.0983 11.4523 59.7232 11.8869C59.3481 12.3207 59.0512 12.8183 58.8343 13.3789C58.6174 13.9394 58.5085 14.5689 58.5085 15.2647C58.5085 15.9605 58.6217 16.5627 58.8479 17.0969C59.0742 17.6302 59.3796 18.1006 59.764 18.5072C60.1485 18.9138 60.5985 19.2668 61.1139 19.5653C61.6294 19.8639 62.1789 20.1242 62.7624 20.3453C63.3459 20.5674 63.9448 20.757 64.5606 20.9161C65.1756 21.0743 65.7727 21.2121 66.3511 21.3295C66.9568 21.4656 67.5471 21.6034 68.1221 21.7437C68.6962 21.8841 69.2075 22.0491 69.6549 22.2396C70.1023 22.4293 70.4596 22.6598 70.7266 22.9312C70.9937 23.2025 71.1264 23.5377 71.1264 23.9349C71.1264 24.3781 71.0022 24.7404 70.753 25.0203C70.5038 25.301 70.1857 25.523 69.7961 25.6854C69.4065 25.8479 68.9821 25.9593 68.521 26.018C68.3441 26.041 68.1714 26.0555 67.9987 26.0691V29.9708C68.3841 29.9495 68.7685 29.9181 69.1522 29.8713C69.8624 29.7854 70.5446 29.6433 71.2004 29.4443C71.8562 29.2452 72.467 28.9849 73.0318 28.6634C73.5966 28.3427 74.0874 27.9395 74.5042 27.4556C74.9201 26.9724 75.2476 26.4042 75.4875 25.7535C75.7274 25.1019 75.8464 24.3508 75.8464 23.5011C75.8464 22.5697 75.6653 21.782 75.3037 21.1407C74.9422 20.4985 74.4489 19.9558 73.8245 19.5126L73.8271 19.5117Z" fill="black"/>
<path d="M73.8385 14.9722C75.3535 14.5452 76.2364 12.9698 75.8085 11.4549C75.3807 9.93914 73.8062 9.05706 72.2904 9.48491C70.3859 10.0216 67.7559 13.726 67.7559 13.726C67.7559 13.726 71.9689 15.4995 73.8377 14.973L73.8385 14.9722Z" fill="black"/>
<path d="M60.3271 23.8762C58.7671 24.0906 57.6758 25.5281 57.8902 27.0881C58.1037 28.6481 59.542 29.7386 61.102 29.5251C63.0253 29.2614 66.1793 25.9517 66.1793 25.9517C66.1793 25.9517 62.2886 23.6074 60.328 23.8762H60.3271Z" fill="black"/>
</g>
<defs>
<clipPath id="clip0_301_984">
<rect width="150.371" height="30" fill="white"/>
</clipPath>
</defs>
</svg>
