<svg width="134" height="22" viewBox="0 0 134 22" fill="none" xmlns="http://www.w3.org/2000/svg">
<g clip-path="url(#clip0_301_1003)">
<path d="M22.8259 17.2039C22.7655 18.0085 22.6148 19.0916 22.2832 19.8339C21.9214 20.6692 21.1072 22 18.2729 22C14.8657 22 13.7199 20.0196 13.7199 17.0493C13.7199 12.7175 13.2074 10.9229 9.61891 10.9229H9.34737V17.2043C9.34737 19.587 9.61891 21.2889 12.4834 21.2889V21.66H0V21.2889C2.86452 21.2889 3.13607 19.587 3.13607 17.2043V4.42493C3.13607 2.04228 2.86452 0.34038 0 0.34038V0H9.79981C15.1066 0 19.8409 0.340379 19.8409 5.44566C19.8409 9.25176 17.2178 10.3037 13.6595 10.6129V10.7986C17.6698 11.0152 20.1725 12.0056 20.1725 15.997C20.1725 19.3389 20.0521 20.7312 20.9263 20.7312C21.8006 20.7312 22.3437 19.277 22.4944 17.2039H22.8259ZM13.4181 5.44566C13.4181 1.63956 12.4532 0.339969 9.9807 0.339969H9.34737V10.5509H9.9807C12.4532 10.5509 13.4181 9.25135 13.4181 5.44525V5.44566Z" fill="black"/>
<path d="M37.1183 17.6988H37.4197C36.6054 20.0195 34.6454 21.9999 31.148 21.9999C27.2581 21.9999 23.1273 19.3699 23.1273 14.5739C23.1273 9.77781 26.8963 7.08594 30.8164 7.08594C34.7365 7.08594 37.7819 9.90166 37.7819 14.6977H28.9168C28.9168 16.2758 28.6754 21.5668 31.8417 21.5668C34.5253 21.5668 36.3347 19.8342 37.1183 17.6992V17.6988ZM28.8865 14.0785H32.716C32.7462 11.077 32.9271 7.45666 30.8164 7.45666C28.7057 7.45666 28.8865 11.077 28.8865 14.0785Z" fill="black"/>
<path d="M53.1294 17.6988C52.3152 20.0195 50.3552 21.9999 46.8577 21.9999C42.9376 21.9999 38.837 19.3699 38.837 14.5739C38.837 10.304 43.1189 7.08594 47.0386 7.08594C50.3556 7.08594 52.9485 8.97361 52.9485 11.5724C52.9485 13.0578 51.8027 14.2023 50.3854 14.2023C48.968 14.2023 47.7622 12.9647 47.8222 11.4485C47.8826 10.087 48.9982 8.94203 50.3552 8.94203C51.6214 8.94203 49.9027 7.54976 47.7017 7.54976C44.5359 7.54976 44.5959 11.3559 44.5959 15.0996C44.5959 16.7396 44.3546 21.5664 47.5511 21.5664C50.2045 21.5664 52.0441 19.8338 52.8277 17.6988H53.129H53.1294Z" fill="black"/>
<path d="M69.2916 14.5429C69.2916 19.3389 65.5226 22.0001 61.6025 22.0001C57.6824 22.0001 53.9437 19.3389 53.9437 14.5429C53.9437 9.7468 57.6829 7.08569 61.6025 7.08569C65.5222 7.08569 69.2916 9.7468 69.2916 14.5429ZM63.5021 14.5429C63.5021 11.4487 63.8337 7.45724 61.6025 7.45724C59.3713 7.45724 59.7029 11.4487 59.7029 14.5429C59.7029 17.637 59.3713 21.6597 61.6025 21.6597C63.8337 21.6597 63.5021 17.637 63.5021 14.5429Z" fill="black"/>
<path d="M78.8803 21.3192V21.6596H69.5027V21.3192C71.101 21.3192 71.3721 20.3908 71.4023 18.8439V2.81572C71.3721 1.29959 71.101 0.371137 69.5027 0.371137V0H76.9505V18.8439C77.0109 20.3912 77.2518 21.3192 78.8803 21.3192Z" fill="black"/>
<path d="M93.3234 17.6988H93.6248C92.8105 20.0195 90.8505 21.9999 87.353 21.9999C83.4631 21.9999 79.3324 19.3699 79.3324 14.5739C79.3324 9.77781 83.1014 7.08594 87.0214 7.08594C90.9415 7.08594 93.9869 9.90166 93.9869 14.6977H85.1218C85.1218 16.2758 84.8805 21.5668 88.0468 21.5668C90.7304 21.5668 92.5398 19.8342 93.3234 17.6992V17.6988ZM85.0916 14.0785H88.9211C88.9513 11.077 89.1322 7.45666 87.0214 7.45666C84.9107 7.45666 85.0916 11.077 85.0916 14.0785Z" fill="black"/>
<path d="M106.018 17.235C105.867 18.6273 105.445 19.9581 104.721 20.7934C103.998 21.5981 102.822 22.0004 101.164 22.0004C96.9421 22.0004 96.0679 19.5869 96.0679 16.9878V7.79792H94.138V7.45754C98.7515 7.30293 100.651 4.79643 101.284 1.94995H101.646V7.45754H105.566V7.79792H101.646L101.616 18.1947C101.616 19.092 101.556 20.7939 103.093 20.7939C103.666 20.7939 104.209 20.4846 104.631 19.8966C105.084 19.2777 105.385 18.2878 105.536 17.2355H106.018V17.235Z" fill="black"/>
<path d="M117.597 17.235C117.446 18.6273 117.024 19.9581 116.3 20.7934C115.577 21.5981 114.401 22.0004 112.743 22.0004C108.521 22.0004 107.647 19.5869 107.647 16.9878V7.79792H105.717V7.45754C110.33 7.30293 112.23 4.79643 112.863 1.94995H113.225V7.45754H117.145V7.79792H113.225L113.195 18.1947C113.195 19.092 113.135 20.7939 114.672 20.7939C115.245 20.7939 115.788 20.4846 116.21 19.8966C116.663 19.2777 116.964 18.2878 117.115 17.2355H117.597V17.235Z" fill="black"/>
<path d="M134 17.3897C133.909 19.1535 133.608 20.36 133.035 21.0408C132.462 21.6904 131.527 22 130.261 22C127.728 22 126.492 21.2265 126.1 19.5554C125.828 20.5146 124.411 22 121.667 22C119.526 22 117.898 20.6385 117.898 18.5035C117.898 15.6878 120.642 15.2855 123.386 14.3882C125.617 13.6455 125.979 12.1913 125.979 10.5821C125.979 8.63291 124.984 7.45675 123.145 7.45675C121.306 7.45675 120.793 8.7871 121.758 8.7871C123.145 8.7871 124.23 9.77707 124.23 11.2005C124.23 12.624 123.115 13.7378 121.758 13.7378C120.129 13.7378 119.104 12.2524 119.104 10.8294C119.104 9.12748 120.461 7.08521 124.502 7.08521C131.739 7.08521 131.527 10.6744 131.527 14.7282V18.9054C131.527 19.9573 131.829 20.4527 132.372 20.4527C133.065 20.4527 133.427 19.4315 133.548 17.3585L134 17.3893L134 17.3897ZM125.979 12.5936C125.286 14.6666 122.904 14.7905 122.904 17.8227C122.904 18.9058 123.326 20.36 124.472 20.36C125.226 20.36 125.979 19.8339 125.979 18.5962V12.5932V12.5936Z" fill="black"/>
</g>
<defs>
<clipPath id="clip0_301_1003">
<rect width="134" height="22" fill="white"/>
</clipPath>
</defs>
</svg>
