<svg width="142" height="30" viewBox="0 0 142 30" fill="none" xmlns="http://www.w3.org/2000/svg">
<g clip-path="url(#clip0_301_1014)">
<path d="M23.6609 6.96817C23.6609 9.88178 20.8657 12.7552 15.5116 13.6218C19.6451 14.291 24.7637 16.6532 24.7637 21.5744C24.7637 25.7474 20.5117 29.9993 12.8349 29.9993C10.7484 29.9993 7.63801 29.3302 3.62227 29.3302C2.48064 29.3302 1.26006 29.3696 0 29.5269V29.1334L0.511921 29.0939C3.62227 28.8182 4.44871 28.3853 4.44871 25.5901V4.36975C4.44871 1.61406 3.62227 1.1811 0.511921 0.905402L0 0.826443V0.471783C1.26006 0.629044 2.55895 0.668524 3.77953 0.668524C8.11046 0.669182 11.9683 0 14.0153 0C17.0467 0 23.6609 1.10214 23.6609 6.96817ZM8.97572 13.1494H12.0861C17.2829 13.1889 18.9365 9.96074 18.9365 6.77143C18.9365 2.63791 15.7083 1.02318 13.2277 1.02318C11.3379 1.02318 10.1173 1.49562 8.97572 2.28325V13.1494ZM8.97572 14.1337V25.1572C8.97572 26.968 9.44816 29.0156 12.8342 29.0156C17.4402 29.0156 20.0386 25.3151 20.0386 21.5355C20.0386 17.756 17.5586 14.1337 12.0466 14.1337H8.97572Z" fill="black"/>
<path d="M38.1486 5.51196C42.0071 5.51196 44.8418 7.24447 46.6131 9.84289C43.4633 14.1343 37.794 18.7008 35.7469 22.0079C34.4086 24.2129 34.0934 27.441 35.668 28.5431C36.2194 28.7794 36.8491 28.9366 37.5577 28.9366C40.7859 28.8971 43.2665 25.1571 42.3216 20.8656C44.093 20.9051 46.4163 21.9283 46.4163 24.2122C46.4163 26.7711 43.8969 29.921 37.5972 29.921C22.7548 29.921 22.8338 5.51196 38.1486 5.51196ZM33.9756 23.5042C34.6843 21.2604 36.653 19.095 38.4243 17.2835C40.747 14.9608 41.8887 12.4413 41.8887 10.4726C41.8887 8.26765 40.6286 6.49632 38.3059 6.49632C31.1403 6.49632 29.1328 21.8901 33.7782 27.1653C33.463 25.9052 33.6598 24.6458 33.975 23.5042H33.9756Z" fill="black"/>
<path d="M48.2656 23.8581C48.2656 14.0553 65.667 16.5747 65.667 10.6692C65.667 8.11029 63.0291 6.77192 60.1944 6.77192C56.9268 6.77192 53.4625 8.54325 53.423 12.3228C53.423 13.1104 53.6197 13.8585 54.0139 14.6455C51.8484 15.1179 49.8014 13.5434 49.8014 11.3779C49.8409 7.67732 54.6436 5.59082 58.7778 5.59082C62.9119 5.59082 67.5179 7.24436 67.3607 12.1655L67.0067 25.9841C66.9672 27.3224 67.6758 28.1101 68.3845 28.1101C68.9359 28.1101 69.5656 27.5981 69.7623 26.4565L70.1163 26.417C70.0374 28.7398 68.1871 29.9209 66.3368 29.9209C64.3293 29.9209 62.2421 28.897 62.2816 25.8262V24.1726C60.7853 27.8337 58.1869 29.8814 54.841 29.9209C51.2977 29.9209 48.2663 27.5981 48.2663 23.8581H48.2656ZM52.9111 23.0705C52.9111 25.3142 54.2106 27.4014 56.8479 27.4014C60.7847 27.3619 62.4777 22.0868 62.6349 18.8975L62.7922 14.9607C58.7764 16.8899 52.9104 16.9682 52.9104 23.0711L52.9111 23.0705Z" fill="black"/>
<path d="M92.9498 26.1414C92.9103 27.4798 93.5795 28.2674 94.2493 28.2674C94.8396 28.2674 95.4305 27.7555 95.6272 26.6139H95.9812C95.8634 28.8576 94.1704 29.921 92.3984 29.921C90.1546 29.921 88.3432 28.9761 88.5011 24.1727L88.8163 15.5115C88.8952 13.346 89.4065 6.92861 85.8244 6.92861C84.1313 6.92861 82.4383 8.85785 81.7297 9.88104C79.9583 12.5584 78.7378 16.6919 78.7378 20.1175V20.078V25.59C78.7378 28.3852 79.5254 28.8182 82.6745 29.0939L83.147 29.1333V29.5268C80.5486 29.3696 78.5015 29.2906 76.4539 29.2906C74.4062 29.2906 72.3986 29.3696 69.7607 29.5268V29.1333L70.2726 29.0939C73.383 28.7787 74.2094 28.3852 74.2094 25.59V10.9838C74.2094 8.18867 73.4218 7.48001 70.2726 7.48001H69.7607V7.08653C73.1468 6.85031 75.43 6.14165 78.3436 4.2124H78.7371V14.2126C79.7998 10.1179 82.7134 5.51194 87.4378 5.51194C93.0281 5.51194 93.5005 11.6142 93.3433 16.0234L92.9498 26.1414Z" fill="black"/>
<path d="M109.013 6.49591C105.902 6.49591 101.886 10.1182 101.886 18.7794C101.886 24.0157 103.855 28.9369 108.185 28.9369C111.414 28.9369 113.894 25.1573 112.949 20.8659C114.721 20.9054 117.044 21.9285 117.044 24.2124C117.044 26.7714 114.525 29.9212 108.225 29.9212C93.3825 29.9212 93.4615 5.51221 108.776 5.51221C112.004 5.51221 115.272 6.89005 117.556 9.92144C115.391 12.6376 112.202 15.4335 109.603 17.9529L109.249 17.4805C111.729 14.8031 112.635 13.2285 112.635 10.5906C112.635 7.95271 110.982 6.49591 109.013 6.49591H109.013Z" fill="black"/>
<path d="M119.169 23.8583C119.169 14.0555 136.57 16.575 136.57 10.6695C136.57 8.11053 133.932 6.77217 131.098 6.77217C127.83 6.77217 124.366 8.54349 124.326 12.323C124.326 13.1106 124.523 13.8588 124.917 14.6457C122.751 15.1182 120.704 13.5436 120.704 11.3781C120.744 7.67757 125.546 5.59106 129.68 5.59106C133.815 5.59106 138.421 7.24461 138.263 12.1658L137.909 25.9843C137.87 27.3227 138.579 28.1103 139.287 28.1103C139.839 28.1103 140.468 27.5984 140.665 26.4568L141.019 26.4173C140.94 28.74 139.09 29.9211 137.239 29.9211C135.232 29.9211 133.145 28.8973 133.184 25.8264V24.1729C131.688 27.834 129.09 29.8816 125.744 29.9211C122.2 29.9211 119.169 27.5984 119.169 23.8583ZM123.814 23.0707C123.814 25.3145 125.113 27.4016 127.751 27.4016C131.688 27.3622 133.381 22.087 133.538 18.8977L133.696 14.9609C129.68 16.8902 123.814 16.9685 123.814 23.0714L123.814 23.0707Z" fill="black"/>
</g>
<defs>
<clipPath id="clip0_301_1014">
<rect width="141.019" height="30" fill="white"/>
</clipPath>
</defs>
</svg>
