<svg width="23" height="23" viewBox="0 0 23 23" fill="none" xmlns="http://www.w3.org/2000/svg">
<mask id="mask0_2_3806" style="mask-type:alpha" maskUnits="userSpaceOnUse" x="0" y="0" width="23" height="23">
<g clip-path="url(#clip0_2_3806)">
<path d="M18.1772 14.2476C17.7064 13.7573 17.1384 13.4952 16.5365 13.4952C15.9394 13.4952 15.3666 13.7525 14.8763 14.2428L13.3424 15.7719C13.2161 15.7039 13.0899 15.6408 12.9686 15.5777C12.7938 15.4903 12.6288 15.4078 12.488 15.3204C11.0511 14.4078 9.74531 13.2185 8.4929 11.6797C7.88611 10.9127 7.47835 10.2671 7.18224 9.61177C7.58029 9.2477 7.94922 8.86906 8.30844 8.50499C8.44436 8.36907 8.58028 8.22829 8.7162 8.09237C9.73561 7.07297 9.73561 5.7526 8.7162 4.73319L7.39097 3.40797C7.24049 3.25748 7.08515 3.10214 6.93952 2.94681C6.64827 2.64584 6.34244 2.33516 6.02691 2.04391C5.55605 1.57789 4.99295 1.33032 4.40072 1.33032C3.8085 1.33032 3.23569 1.57789 2.75026 2.04391C2.7454 2.04876 2.7454 2.04876 2.74055 2.05361L1.09008 3.71864C0.468732 4.33999 0.114367 5.09727 0.0366984 5.97589C-0.079805 7.39335 0.337665 8.71372 0.65805 9.57779C1.44445 11.6991 2.61919 13.6651 4.3716 15.7719C6.49778 18.3107 9.056 20.3155 11.9783 21.7281C13.0948 22.2572 14.5851 22.8834 16.2501 22.9902C16.352 22.9951 16.4588 23 16.5559 23C17.6773 23 18.619 22.597 19.3568 21.7961C19.3617 21.7864 19.3714 21.7815 19.3763 21.7718C19.6287 21.466 19.9199 21.1893 20.2258 20.8932C20.4345 20.6942 20.6481 20.4854 20.8568 20.267C21.3374 19.767 21.5898 19.1845 21.5898 18.5874C21.5898 17.9855 21.3325 17.4078 20.8423 16.9224L18.1772 14.2476ZM19.9151 19.3592C19.9102 19.3592 19.9102 19.3641 19.9151 19.3592C19.7258 19.5631 19.5316 19.7476 19.3229 19.9514C19.0073 20.2524 18.687 20.5679 18.386 20.9223C17.8957 21.4466 17.318 21.6941 16.5608 21.6941C16.4879 21.6941 16.4103 21.6941 16.3375 21.6893C14.8957 21.5971 13.5559 21.034 12.5511 20.5534C9.80357 19.2233 7.39097 17.335 5.38615 14.9418C3.73083 12.9467 2.62404 11.102 1.89104 9.12149C1.43959 7.91276 1.27455 6.97103 1.34736 6.08269C1.3959 5.51474 1.61435 5.04387 2.01726 4.64096L3.67258 2.98564C3.91044 2.76234 4.16286 2.64099 4.41043 2.64099C4.71625 2.64099 4.96382 2.82545 5.11916 2.98079C5.12401 2.98564 5.12887 2.9905 5.13372 2.99535C5.42983 3.27205 5.71138 3.55845 6.0075 3.86427C6.15798 4.01961 6.31332 4.17495 6.46866 4.33514L7.79388 5.66036C8.30844 6.17492 8.30844 6.65064 7.79388 7.1652C7.65311 7.30597 7.51719 7.44675 7.37641 7.58267C6.96865 8.00014 6.58031 8.38848 6.15798 8.76712C6.14827 8.77683 6.13856 8.78168 6.13371 8.79139C5.71624 9.20886 5.79391 9.61662 5.88129 9.89332C5.88614 9.90788 5.89099 9.92245 5.89585 9.93701C6.2405 10.7719 6.72593 11.5583 7.46379 12.4952L7.46864 12.5001C8.80843 14.1505 10.221 15.4369 11.7793 16.4224C11.9783 16.5486 12.1822 16.6505 12.3763 16.7476C12.5511 16.835 12.7162 16.9175 12.8569 17.0049C12.8763 17.0146 12.8958 17.0292 12.9152 17.0389C13.0802 17.1214 13.2356 17.1602 13.3958 17.1602C13.7987 17.1602 14.0511 16.9078 14.1336 16.8253L15.7938 15.1651C15.9588 15.0001 16.221 14.801 16.5268 14.801C16.8277 14.801 17.0753 14.9903 17.2258 15.1554C17.2307 15.1602 17.2307 15.1602 17.2355 15.1651L19.9102 17.8398C20.4102 18.335 20.4102 18.8447 19.9151 19.3592Z" fill="black"/>
<path d="M12.4297 5.47116C13.7016 5.68475 14.8569 6.28668 15.7792 7.209C16.7015 8.13132 17.2986 9.28665 17.5171 10.5585C17.5705 10.8789 17.8471 11.1022 18.1627 11.1022C18.2015 11.1022 18.2355 11.0973 18.2743 11.0924C18.6335 11.0342 18.8714 10.6944 18.8132 10.3352C18.551 8.79636 17.8229 7.39347 16.7112 6.28183C15.5996 5.17019 14.1967 4.44205 12.6579 4.17992C12.2987 4.12166 11.9637 4.35953 11.9006 4.71389C11.8375 5.06825 12.0705 5.41291 12.4297 5.47116Z" fill="black"/>
<path d="M22.9733 10.1458C22.5413 7.61184 21.3471 5.30604 19.5122 3.47111C17.6773 1.63618 15.3715 0.442024 12.8375 0.00999088C12.4831 -0.0531151 12.1482 0.1896 12.0851 0.543965C12.0268 0.903184 12.2647 1.23813 12.6239 1.30124C14.886 1.68473 16.9491 2.75753 18.5899 4.39343C20.2306 6.03419 21.2986 8.09727 21.6821 10.3594C21.7355 10.6798 22.0121 10.9031 22.3277 10.9031C22.3665 10.9031 22.4005 10.8982 22.4393 10.8933C22.7937 10.84 23.0364 10.5002 22.9733 10.1458Z" fill="black"/>
</g>
</mask>
<g mask="url(#mask0_2_3806)">
<rect x="-9.06061" y="-81.5454" width="130.333" height="120.576" fill="#C59D5F"/>
</g>
<defs>
<clipPath id="clip0_2_3806">
<rect width="23" height="23" fill="white"/>
</clipPath>
</defs>
</svg>
